<?xml version="1.0" standalone="no"?>
<!DOCTYPE svg PUBLIC "-//W3C//DTD SVG 20010904//EN"
 "http://www.w3.org/TR/2001/REC-SVG-20010904/DTD/svg10.dtd">
<svg version="1.0" xmlns="http://www.w3.org/2000/svg"
 width="700.000000pt" height="700.000000pt" viewBox="0 0 700.000000 700.000000"
 preserveAspectRatio="xMidYMid meet">
<metadata>
Created by potrace 1.14, written by Peter Selinger 2001-2017
</metadata>
<g transform="translate(0.000000,700.000000) scale(0.100000,-0.100000)"
fill="#000000" stroke="none">
<path d="M2240 6399 c-64 -23 -107 -55 -144 -107 -20 -29 -284 -807 -913
-2694 -819 -2452 -886 -2658 -887 -2723 -2 -118 62 -217 172 -267 l47 -22
2985 -1 2985 0 59 30 c107 54 167 155 161 270 -2 47 -102 358 -479 1490 -263
787 -481 1439 -486 1450 -4 11 -112 335 -240 720 -127 385 -235 708 -240 717
-6 10 -10 24 -10 33 0 8 -11 38 -23 67 -64 143 -221 211 -371 161 -47 -16
-101 -67 -663 -627 -337 -336 -614 -608 -616 -605 -2 2 -228 453 -502 1002
-381 763 -507 1006 -536 1036 -78 79 -196 106 -299 70z m584 -1907 c456 -913
457 -914 548 -962 61 -33 184 -34 251 -3 37 17 172 146 623 598 317 316 579
575 582 575 9 0 1183 -3523 1176 -3529 -2 -3 -1130 -5 -2507 -5 -1770 1 -2502
4 -2502 11 0 12 1388 4183 1392 4183 2 0 198 -391 437 -868z"/>
</g>
</svg>
